<?xml version="1.0" standalone="no"?>
<!DOCTYPE svg PUBLIC "-//W3C//DTD SVG 20010904//EN"
 "http://www.w3.org/TR/2001/REC-SVG-20010904/DTD/svg10.dtd">
<svg version="1.0" xmlns="http://www.w3.org/2000/svg"
 width="1052.000000pt" height="751.000000pt" viewBox="0 0 1052.000000 751.000000"
 preserveAspectRatio="xMidYMid meet">

<g transform="translate(0.000000,751.000000) scale(0.100000,-0.100000)"
fill="#000000" stroke="none">
<path d="M4655 7238 c-313 -144 -572 -263 -574 -265 -4 -3 -80 -5355 -77
-5360 1 -1 237 483 524 1076 l522 1079 90 1728 c50 951 90 1748 90 1772 0 23
3 42 8 41 4 0 91 -110 195 -244 l187 -244 10 -1332 c5 -732 10 -1333 12 -1334
2 -2 181 -83 398 -180 217 -98 403 -182 414 -187 40 -21 -4 18 -308 277 l-314
268 5 1290 6 1289 -294 294 -294 294 -6 -32 -6 -33 -2 33 c0 17 -4 32 -8 31
-5 0 -264 -118 -578 -261z"/>
<path d="M6345 6289 c-214 -81 -394 -150 -399 -152 -6 -2 117 -72 272 -157
230 -125 282 -157 282 -174 0 -12 18 -388 40 -836 22 -448 40 -837 41 -865 1
-27 3 -43 5 -35 2 8 58 480 124 1049 66 569 122 1036 125 1039 4 4 865 -380
884 -394 2 -2 43 -171 91 -376 49 -205 89 -371 90 -368 1 3 10 185 20 405 16
355 16 401 3 412 -18 14 -1164 597 -1178 600 -5 1 -185 -66 -400 -148z"/>
<path d="M7565 4874 c-49 -19 -97 -36 -105 -37 -8 -1 -20 -6 -26 -9 -8 -6
-144 -57 -179 -68 -5 -2 -25 -9 -42 -17 -18 -7 -40 -14 -50 -16 -10 -2 -27 -8
-38 -13 -11 -6 -49 -21 -85 -34 l-66 -22 3 -607 c2 -333 4 -824 5 -1091 3
-657 10 -964 21 -885 5 33 8 67 9 75 0 8 7 65 15 125 8 61 15 117 15 125 0 8
4 47 10 85 5 39 11 93 14 120 2 28 9 84 15 125 6 41 11 82 11 90 0 8 4 47 10
85 5 39 11 93 14 120 2 28 9 84 15 125 6 41 11 82 11 90 0 8 4 47 10 85 5 39
11 93 14 120 2 28 9 84 15 125 6 41 12 98 15 125 3 28 14 122 25 210 11 88 22
180 24 205 3 25 8 65 11 90 10 62 10 69 12 123 2 39 5 46 17 40 25 -15 224
-280 223 -300 0 -10 3 -67 6 -128 6 -106 9 -165 21 -400 6 -125 13 -269 20
-400 2 -49 7 -139 10 -200 3 -60 8 -153 10 -205 3 -52 8 -156 11 -230 3 -74 9
-151 14 -170 l8 -35 2 35 c1 19 2 38 1 42 0 5 5 66 25 293 3 33 6 67 6 75 0
15 13 174 24 295 3 33 6 67 6 75 0 15 13 174 24 295 3 33 6 67 6 75 0 15 13
174 24 295 3 33 6 67 6 75 0 15 13 174 24 295 3 33 6 67 6 75 0 16 15 191 24
295 4 33 6 70 5 83 -1 18 3 22 17 18 9 -3 37 -10 62 -16 25 -6 52 -14 60 -17
8 -3 22 -7 30 -8 24 -4 263 -65 280 -72 8 -3 22 -7 30 -8 24 -4 263 -65 280
-72 8 -3 22 -7 30 -8 8 -1 61 -14 117 -29 118 -30 118 -30 101 -12 -7 8 -16
12 -20 9 -5 -2 -8 1 -8 8 0 7 -3 10 -6 7 -6 -7 -297 132 -302 144 -2 4 -8 6
-13 2 -5 -3 -9 0 -9 7 0 7 -3 10 -6 7 -7 -7 -316 141 -326 156 -4 6 -8 8 -8 4
0 -9 -313 142 -322 156 -4 6 -8 8 -8 3 0 -4 -18 2 -40 13 -51 26 -58 25 -165
-16z"/>
<path d="M8852 3970 c0 -19 2 -27 5 -17 2 9 2 25 0 35 -3 9 -5 1 -5 -18z"/>
<path d="M3257 3647 l-427 -322 6 -902 7 -901 -22 -35 c-40 -65 -146 -154
-234 -196 -163 -78 -177 -80 -1102 -116 -363 -14 -682 -29 -710 -33 -33 -5
757 -60 2365 -165 l2415 -159 1960 152 c1077 83 1961 153 1964 156 2 2 -18 4
-45 4 -70 -1 -1668 62 -1672 65 -2 2 -35 178 -74 391 -39 214 -74 392 -77 396
-4 4 -58 -165 -122 -375 l-115 -382 -349 -2 c-193 -2 -446 1 -564 5 l-215 7
-295 725 -294 725 -16 472 c-9 259 -19 474 -22 477 -3 3 -131 -420 -284 -939
l-280 -945 -6 68 c-4 37 -8 141 -9 232 -1 91 -5 208 -9 260 l-6 94 -410 -584
-411 -585 -252 -3 -252 -2 -1 737 c-1 406 -5 1023 -8 1370 l-6 633 -428 -323z"/>
<path d="M8832 3762 c-7 -59 -15 -127 -18 -152 -3 -25 -5 -52 -6 -60 0 -8 -9
-87 -20 -175 -26 -225 -29 -248 -30 -265 0 -8 -7 -67 -15 -130 -14 -115 -16
-131 -28 -245 -3 -33 -13 -116 -21 -185 -9 -69 -16 -132 -16 -140 0 -8 -9 -87
-20 -175 -20 -169 -23 -194 -33 -290 -3 -33 -10 -96 -16 -140 -9 -75 -14 -119
-23 -205 -2 -19 -7 -67 -11 -106 l-7 -70 123 -54 c68 -30 127 -59 131 -64 4
-6 8 -7 8 -2 0 4 10 2 23 -6 l22 -15 -1 136 c-6 913 -24 2443 -28 2448 -1 2
-8 -46 -14 -105z"/>
<path d="M5714 328 l0 -308 133 0 133 0 0 130 0 130 83 0 c45 0 160 3 255 7
l172 6 0 -138 0 -137 23 6 c12 3 70 6 130 6 l107 0 0 299 c0 165 -3 301 -7
303 -5 2 -65 2 -135 0 l-127 -3 6 -115 6 -114 -257 0 -256 0 0 118 0 117 -132
0 -133 0 -1 -307z"/>
<path d="M10 330 l0 -300 118 0 117 0 -3 232 c-2 128 0 230 4 225 4 -4 60
-107 125 -230 l117 -222 139 -3 138 -2 115 224 c63 123 118 222 122 220 5 -3
8 -49 8 -103 0 -54 3 -153 7 -219 l6 -122 114 0 113 0 0 300 0 300 -196 -2
-196 -3 -111 -197 c-61 -109 -113 -198 -117 -198 -3 0 -57 90 -120 200 l-114
200 -193 0 -193 0 0 -300z"/>
<path d="M4100 522 c0 -60 3 -197 7 -305 l6 -197 47 0 c26 0 81 3 123 6 l77 7
0 129 c0 71 5 138 10 148 20 37 97 72 170 78 57 4 76 1 115 -18 75 -36 85 -62
85 -212 l0 -128 111 0 110 0 -3 159 -3 160 -34 35 c-18 19 -57 45 -85 58 -45
20 -66 23 -186 23 -109 0 -150 -5 -213 -23 -42 -12 -79 -22 -82 -22 -3 0 -5
47 -5 105 l0 105 -125 0 -125 0 0 -108z"/>
<path d="M2680 588 c-165 -42 -150 -33 -150 -83 l0 -45 -55 0 -55 0 0 -40 0
-40 56 0 55 0 -2 -132 c-4 -216 8 -228 251 -228 l160 0 0 45 0 45 -79 0 c-50
0 -83 4 -87 12 -4 6 -9 67 -12 135 l-5 123 92 0 91 0 0 40 0 40 -85 0 -84 0
-6 33 c-2 17 -6 50 -7 73 l-3 40 -75 -18z"/>
<path d="M1598 469 c-49 -14 -116 -76 -128 -116 l-9 -33 119 0 118 0 11 31 11
31 134 -4 c110 -2 138 -6 152 -20 35 -34 13 -43 -137 -56 -293 -25 -449 -83
-449 -168 0 -34 57 -82 118 -100 78 -23 446 -17 484 8 26 17 27 17 46 -7 19
-23 21 -24 130 -18 62 3 112 8 112 10 0 2 -12 27 -26 56 -26 50 -27 56 -21
170 6 117 6 119 -19 144 -13 13 -48 35 -77 48 -49 23 -66 24 -292 29 -156 4
-253 2 -277 -5z m417 -275 c11 -75 -26 -93 -188 -94 -80 0 -90 2 -112 25 -14
13 -25 29 -25 35 0 51 74 76 236 79 l82 1 7 -46z"/>
<path d="M9120 467 c-30 -4 -86 -15 -125 -24 -38 -10 -73 -17 -77 -18 -3 0
-10 -3 -14 -7 -12 -12 -41 -9 -82 8 -20 8 -38 15 -39 15 -1 1 -24 7 -49 15
-88 26 -245 13 -357 -31 -49 -19 -57 -19 -57 4 0 15 -11 19 -61 25 -34 3 -84
6 -110 6 l-49 0 0 -215 0 -215 115 0 115 0 0 138 c0 151 6 169 61 197 16 9 29
13 29 9 0 -4 7 0 16 7 19 15 119 19 149 5 11 -5 25 -10 30 -11 6 0 9 -7 7 -14
-1 -7 2 -10 8 -6 19 12 32 -49 29 -140 -1 -50 -1 -114 0 -144 l1 -53 53 6 c28
3 85 6 125 6 l72 0 0 134 c0 120 2 136 21 160 52 66 188 93 247 49 40 -30 51
-74 51 -215 l1 -128 83 0 c45 0 98 -3 117 -6 l35 -6 -5 174 c-6 218 -13 232
-132 262 -80 20 -137 24 -208 13z"/>
<path d="M10056 473 c-1 -1 -27 -4 -57 -7 -116 -9 -254 -61 -307 -114 -19 -20
-43 -67 -49 -97 -11 -60 58 -148 146 -188 53 -24 41 -21 189 -38 204 -23 401
12 481 87 l36 33 -111 1 c-93 0 -119 -4 -160 -22 -70 -31 -223 -32 -274 -2
-38 22 -68 70 -53 85 6 6 134 8 310 7 l300 -3 -9 40 c-5 22 -10 45 -12 50 -2
6 -4 14 -4 18 -1 4 -20 26 -44 48 -49 45 -119 74 -217 90 -64 10 -160 17 -165
12z m139 -102 c44 -19 59 -34 69 -68 l7 -23 -190 0 c-177 0 -190 1 -184 18 32
88 180 124 298 73z"/>
<path d="M3274 451 c-104 -38 -163 -80 -194 -142 -56 -109 17 -212 187 -266
63 -20 94 -23 219 -23 159 0 253 16 341 57 48 22 103 72 103 94 0 5 -50 9
-110 9 l-111 0 -35 -35 -35 -35 -111 0 c-105 0 -114 2 -150 26 -43 30 -78 81
-78 114 0 34 29 75 73 104 38 24 49 26 154 26 100 0 115 -2 133 -20 18 -18 33
-20 146 -20 104 0 125 2 115 13 -18 22 -106 66 -183 93 -65 22 -86 24 -242 23
-138 0 -181 -4 -222 -18z"/>
<path d="M7327 463 c-2 -1 -85 -16 -157 -28 -8 -1 -24 -6 -35 -10 -22 -9 -81
-32 -92 -37 -4 -2 -23 -20 -42 -41 -40 -45 -52 -107 -28 -153 19 -36 83 -104
91 -96 3 3 6 -1 6 -8 0 -7 3 -11 6 -7 4 3 21 -1 38 -10 17 -9 36 -18 41 -19
207 -45 386 -44 552 5 17 5 34 7 37 3 3 -3 6 -1 6 5 0 10 46 28 63 25 4 -1 7
2 7 8 0 5 5 10 10 10 12 0 81 73 80 85 0 3 0 8 1 13 6 38 -20 104 -58 148 -26
30 -124 73 -206 91 -58 12 -311 25 -320 16z m246 -113 c56 -17 107 -65 107
-102 0 -35 -17 -71 -31 -63 -5 4 -8 3 -7 -2 2 -4 -1 -9 -6 -10 -5 -1 -12 -6
-16 -13 -4 -6 -16 -13 -26 -15 -10 -2 -20 -4 -21 -4 -2 -1 -6 -1 -10 -2 -5 0
-14 -6 -21 -12 -8 -6 -53 -10 -105 -10 -202 1 -308 97 -212 190 19 19 40 31
45 28 6 -3 10 -2 10 4 0 28 211 36 293 11z"/>
</g>
</svg>
